<?xml version="1.0" encoding="utf-8"?>
<!-- Generator: Adobe Illustrator 19.1.0, SVG Export Plug-In . SVG Version: 6.00 Build 0)  -->
<svg version="1.1" id="Layer_1" xmlns="http://www.w3.org/2000/svg" xmlns:xlink="http://www.w3.org/1999/xlink" x="0px" y="0px"
	 viewBox="0 0 1152 864" style="enable-background:new 0 0 1152 864;" xml:space="preserve">
<style type="text/css">
	.st0{fill:none;stroke:#000000;stroke-width:15;stroke-miterlimit:10;}
	.st1{fill:none;}
	.st2{font-family:'Homenaje-Regular';}
	.st3{font-size:100px;}
	.st4{font-size:40px;}
	.st5{letter-spacing:2;}
</style>
<path class="st0" d="M955,630.4H197c-43.6,0-79.2-35.6-79.2-79.2V293.4c0-43.6,35.6-79.2,79.2-79.2H955c43.6,0,79.2,35.6,79.2,79.2
	v257.7C1034.2,594.7,998.6,630.4,955,630.4z"/>
<rect x="408.4" y="484.2" class="st1" width="567.3" height="97.1"/>
<text transform="matrix(1 0 0 1 408.3991 554.2332)" class="st2 st3">Church on the Hill</text>
<rect x="816.5" y="572.5" class="st1" width="159.3" height="85.3"/>
<text transform="matrix(1 0 0 1 816.4577 600.4691)" class="st2 st4 st5">EST  1850</text>
<path d="M277.1,437.5v19.8h-40.2c-18.2,0-32.3-4.6-42.3-13.8c-10-9.2-15-22.7-15-40.5V301.6c0-17.8,5-31.3,15-40.5
	c10-9.2,24.1-13.8,42.3-13.8h40.2v19.8h-40.2c-9.2,0-16.7,2.7-22.4,8c-5.7,5.3-8.6,12.4-8.6,21.1v112.2c0,8.8,2.9,15.9,8.6,21.1
	c5.7,5.3,13.1,7.9,22.4,7.9H277.1z M276.6,266.8h-26.9c-4,0-7.2-3.2-7.2-7.2v-5.1c0-4,3.2-7.2,7.2-7.2h26.9c4,0,7.2,3.2,7.2,7.2v5.1
	C283.8,263.6,280.6,266.8,276.6,266.8z M953,456.8H266.8c-4,0-7.2-3.2-7.2-7.2v-5.1c0-4,3.2-7.2,7.2-7.2H953c4,0,7.2,3.2,7.2,7.2
	v5.1C960.2,453.6,957,456.8,953,456.8z"/>
<path d="M292.3,551.8h-13c-4,0-7.2-3.2-7.2-7.2V349.7c0-4,3.2-7.2,7.2-7.2h13c4,0,7.2,3.2,7.2,7.2v194.9
	C299.5,548.5,296.3,551.8,292.3,551.8z"/>
<path d="M368.2,551.8h-13c-4,0-7.2-3.2-7.2-7.2V349.7c0-4,3.2-7.2,7.2-7.2h13c4,0,7.2,3.2,7.2,7.2v194.9
	C375.4,548.5,372.2,551.8,368.2,551.8z"/>
</svg>
