<?xml version="1.0" encoding="utf-8"?>
<!-- Generator: Adobe Illustrator 19.1.0, SVG Export Plug-In . SVG Version: 6.00 Build 0)  -->
<svg version="1.1" id="Layer_1" xmlns="http://www.w3.org/2000/svg" xmlns:xlink="http://www.w3.org/1999/xlink" x="0px" y="0px"
	 viewBox="0 0 1152 864" style="enable-background:new 0 0 1152 864;" xml:space="preserve">
<style type="text/css">
	.st0{fill:url(#SVGID_1_);}
	.st1{fill:#FFFFFF;}
</style>
<linearGradient id="SVGID_1_" gradientUnits="userSpaceOnUse" x1="576.6941" y1="234.2092" x2="575.3607" y2="595.5425">
	<stop  offset="5.076142e-03" style="stop-color:#F9A13F"/>
	<stop  offset="0.2207" style="stop-color:#F18A35"/>
	<stop  offset="0.5663" style="stop-color:#E96B29"/>
	<stop  offset="0.8379" style="stop-color:#E45525"/>
	<stop  offset="1" style="stop-color:#E34C24"/>
</linearGradient>
<path class="st0" d="M955,630.4H197c-43.6,0-79.2-35.6-79.2-79.2V293.4c0-43.6,35.6-79.2,79.2-79.2H955c43.6,0,79.2,35.6,79.2,79.2
	v257.7C1034.2,594.7,998.6,630.4,955,630.4z"/>
<g>
	<path class="st1" d="M445.2,547.6v6.6h-13.4c-6.1,0-10.8-1.5-14.1-4.6c-3.3-3.1-5-7.6-5-13.5v-33.8c0-5.9,1.7-10.4,5-13.5
		c3.3-3.1,8-4.6,14.1-4.6h13.4v6.6h-13.4c-3.1,0-5.5,0.9-7.4,2.7c-1.9,1.8-2.9,4.1-2.9,7v37.4c0,2.9,0.9,5.3,2.9,7
		c1.9,1.8,4.4,2.6,7.4,2.6H445.2z"/>
	<path class="st1" d="M453.2,484.2h8v20.7c1.1-0.3,2.5-0.8,4.4-1.3c1.8-0.5,3.1-0.9,3.9-1.2c2.2-0.6,4.4-0.9,6.6-0.9
		c2.2,0,3.8,0.8,4.9,2.5c1.1,1.7,1.7,3.8,1.7,6.5v43.7h-8v-41.1c0-1.9-0.1-3.3-0.4-4c-0.3-0.8-0.8-1.1-1.6-1.1s-4.6,1.1-11.5,3.2
		v43.1h-8V484.2z"/>
	<path class="st1" d="M523.4,554.2h-5.7l-1.5-3.4c-1,0.3-2.3,0.7-4,1.4c-1.7,0.6-3.1,1.1-4.2,1.4c-1.1,0.3-2,0.6-2.6,0.7
		c-1.9,0.4-3.4,0.6-4.5,0.6c-2.4,0-4.2-0.8-5.4-2.5c-1.2-1.7-1.8-3.8-1.8-6.5v-43.7h8v41.1c0,2.3,0.2,3.8,0.6,4.4s0.9,0.8,1.5,0.8
		s4.4-1,11.5-3v-43.3h8V554.2z"/>
	<path class="st1" d="M554.7,501.5v5.9c-1.7,0-5.5,1.4-11.3,4.2v42.6h-8v-52h6.2l0.9,3.7c4.1-2,6.9-3.2,8.4-3.7
		C552.4,501.8,553.7,501.5,554.7,501.5z"/>
	<path class="st1" d="M585.2,502.2v6h-10.9c-1.5,0-2.8,0.5-3.7,1.5c-0.9,1-1.4,2.3-1.4,4v29c0,1.6,0.5,2.9,1.5,4
		c1,1,2.2,1.5,3.8,1.5h10.8v6h-12c-3.7,0-6.6-1.1-8.8-3.3c-2.2-2.2-3.2-5.2-3.2-8.9v-26.6c0-4.2,1.1-7.5,3.3-9.8
		c2.2-2.3,5.4-3.5,9.6-3.5H585.2z"/>
	<path class="st1" d="M592.2,484.2h8v20.7c1.1-0.3,2.5-0.8,4.3-1.3c1.8-0.5,3.2-0.9,4-1.2c2.2-0.6,4.4-0.9,6.5-0.9
		c2.2,0,3.8,0.8,5,2.5c1.1,1.7,1.7,3.8,1.7,6.5v43.7h-8v-41.1c0-1.9-0.1-3.3-0.4-4c-0.3-0.8-0.8-1.1-1.6-1.1s-4.6,1.1-11.5,3.2v43.1
		h-8V484.2z"/>
	<path class="st1" d="M676.2,541.5c0,4.2-1.3,7.5-3.9,9.8c-2.6,2.4-6.2,3.6-10.8,3.6c-4.7,0-8.3-1.2-10.8-3.6
		c-2.6-2.4-3.9-5.6-3.9-9.8v-26.6c0-4.2,1.3-7.5,3.9-9.9c2.6-2.4,6.2-3.5,10.8-3.5c4.7,0,8.3,1.2,10.8,3.5c2.6,2.4,3.9,5.7,3.9,9.9
		V541.5z M654.6,541.5c0,2.3,0.6,4.1,1.9,5.3c1.2,1.2,2.9,1.9,5,1.9c2.1,0,3.8-0.6,5-1.9c1.2-1.2,1.9-3,1.9-5.3v-26.6
		c0-2.3-0.6-4.1-1.9-5.4c-1.2-1.2-2.9-1.8-5-1.8c-2.1,0-3.8,0.6-5,1.8c-1.2,1.2-1.9,3-1.9,5.4V541.5z"/>
	<path class="st1" d="M686.2,502.2h6.2l0.9,2.9c0.9-0.3,2.4-0.7,4.4-1.3c2-0.6,3.5-1,4.4-1.2c2.6-0.7,5-1.1,7-1.1s3.7,0.8,4.8,2.5
		c1.1,1.7,1.7,3.8,1.7,6.5v43.7h-8v-41.1c0-1.9-0.1-3.3-0.4-4c-0.3-0.8-0.8-1.1-1.6-1.1s-4.6,1.1-11.5,3.2v43.1h-8V502.2z"/>
	<path class="st1" d="M752.4,508.2v34.5c0,1.6,0.4,2.9,1.3,4c0.9,1,2.1,1.5,3.7,1.5h3v6h-4.1c-3.7,0-6.6-1.1-8.7-3.3
		c-2.1-2.2-3.2-5.2-3.2-8.9v-33.8h-6v-6h6v-15.1l8-3v18.1h8v6H752.4z"/>
	<path class="st1" d="M768.4,484.2h8v20.7c1.1-0.3,2.5-0.8,4.3-1.3c1.8-0.5,3.2-0.9,4-1.2c2.2-0.6,4.4-0.9,6.5-0.9
		c2.2,0,3.8,0.8,5,2.5c1.1,1.7,1.7,3.8,1.7,6.5v43.7h-8v-41.1c0-1.9-0.1-3.3-0.4-4c-0.3-0.8-0.8-1.1-1.6-1.1s-4.6,1.1-11.5,3.2v43.1
		h-8V484.2z"/>
	<path class="st1" d="M821.6,548.2h10.8v6h-12c-3.7,0-6.6-1.1-8.8-3.3c-2.2-2.2-3.2-5.2-3.2-8.9v-26.6c0-4.3,1.2-7.7,3.6-10.2
		c2.4-2.5,6-3.7,10.7-3.7c4.7,0,8.3,1.2,10.6,3.7c2.4,2.5,3.5,5.9,3.5,10.2v4.6c0,4.8-2.9,8-8.7,9.6l-11.8,3.3v9.8
		c0,1.6,0.5,2.9,1.5,4C818.8,547.7,820.1,548.2,821.6,548.2z M816.4,513.7v12.9c1.5-0.5,3.2-0.9,4.9-1.3c1.7-0.4,2.9-0.8,3.5-1
		c0.6-0.2,1.3-0.4,2.1-0.7c0.8-0.3,1.2-0.6,1.3-1c0.4-1.1,0.6-2.2,0.6-3.4v-5.5c0-4.1-2.1-6.2-6.2-6.2c-1.9,0-3.4,0.5-4.6,1.6
		C817,510.2,816.4,511.7,816.4,513.7z"/>
	<path class="st1" d="M889.9,520.4H870v33.8h-8.8v-70h8.8v29.6h19.9v-29.6h8.8v70h-8.8V520.4z"/>
	<path class="st1" d="M912,493.7v-8h8v8H912z M912,554.2v-52h8v52H912z"/>
	<path class="st1" d="M932.1,554.2v-70h8v70H932.1z"/>
	<path class="st1" d="M952.1,554.2v-70h8v70H952.1z"/>
</g>
<g>
	<path class="st1" d="M819.4,600.5v-28h12.2v2.7h-8.7v9h7v2.7h-7v10.9h9.1v2.7H819.4z"/>
	<path class="st1" d="M845.9,596.5c0.7-0.9,1-2,1-3.2s-0.2-2.2-0.7-3.1s-1-1.5-1.7-2c-0.7-0.5-1.4-1-2.2-1.6
		c-0.8-0.6-1.5-1.2-2.2-1.7c-0.7-0.5-1.2-1.3-1.7-2.2c-0.4-0.9-0.7-2-0.7-3.2c0-2.1,0.6-3.8,1.9-5.1s3.1-1.9,5.3-1.9h3.2v2.6h-3.1
		c-1.3,0-2.3,0.4-2.9,1.2c-0.7,0.8-1,1.7-1,2.7s0.2,1.8,0.7,2.5c0.4,0.7,1,1.3,1.7,1.7c0.7,0.5,1.4,1,2.2,1.6s1.5,1.2,2.2,1.9
		c0.7,0.6,1.2,1.5,1.7,2.5c0.4,1.1,0.7,2.3,0.7,3.6c0,2.5-0.7,4.4-2.1,5.7c-1.4,1.3-3.4,1.9-5.9,1.9h-4.2v-2.6h4.4
		C844.1,597.8,845.2,597.4,845.9,596.5z"/>
	<path class="st1" d="M860,600.5v-25.4h-5.6v-2.6h14.7v2.6h-5.6v25.4H860z"/>
	<path class="st1" d="M894.4,600.5v-25.4h-3.5v-2.6h7v28H894.4z"/>
	<path class="st1" d="M905.5,582.6v-5.2c0-3.5,2.2-5.2,6.5-5.2c2.1,0,3.8,0.5,4.9,1.4s1.7,2.2,1.7,3.8v5.2c0,1.5-0.7,2.8-2.1,3.7
		c1.6,1.1,2.4,2.4,2.4,3.9v5.6c0,1.5-0.6,2.7-1.8,3.6c-1.2,0.9-2.9,1.3-5.1,1.3c-4.7,0-7-1.6-7-4.9v-5.6c0-1.6,0.8-2.9,2.5-3.9
		C906.1,585.4,905.5,584.1,905.5,582.6z M908.5,590.7v4.7c0,1.8,1.1,2.7,3.4,2.7c2.3,0,3.4-0.9,3.4-2.7v-4.7c0-0.9-0.3-1.7-0.8-2.2
		c-0.6-0.6-1.4-0.8-2.5-0.8c-1.1,0-2,0.3-2.6,0.9C908.8,589.1,908.5,589.8,908.5,590.7z M911.9,584.8c2,0,3-0.9,3-2.6v-4.3
		c0-1.6-0.4-2.6-1.3-2.8c-0.4-0.1-1.1-0.2-2-0.2s-1.6,0.3-2,0.8s-0.6,1.3-0.6,2.3l0,4.3c0,0.9,0.2,1.6,0.6,2
		C910.1,584.6,910.8,584.8,911.9,584.8z"/>
	<path class="st1" d="M925.9,595.6h3.5c0,0.9,0.4,1.5,1.1,1.9c0.7,0.4,1.5,0.6,2.5,0.6c0.9,0,1.8-0.2,2.5-0.6c0.7-0.4,1.1-1,1.1-1.9
		v-6.8c0-1-0.2-1.7-0.5-2.1c-0.3-0.4-1.1-0.5-2.2-0.5H926v-13.8h12.1v2.6h-8.6v8.5h5.3c1.8,0,3.2,0.4,4,1.2c0.8,0.8,1.2,2.1,1.2,3.8
		v6.8c0,1.7-0.7,3-2.1,3.9c-1.4,0.9-3.1,1.4-5,1.4c-1.9,0-3.6-0.4-5-1.3C926.6,598.6,925.9,597.3,925.9,595.6z"/>
	<path class="st1" d="M960.4,576.7v19c0,1.6-0.6,2.8-1.9,3.7c-1.2,0.9-2.8,1.3-4.8,1.3c-2,0-3.6-0.4-4.8-1.3s-1.9-2.1-1.9-3.7v-19
		c0-1.6,0.6-2.7,1.8-3.5s2.8-1.1,4.9-1.1c2,0,3.6,0.4,4.9,1.1C959.8,574,960.4,575.2,960.4,576.7z M950.6,577.4v18.2
		c0,1.6,1.1,2.4,3.2,2.4c2.1,0,3.2-0.8,3.2-2.4v-18.2c0-1.6-1.1-2.4-3.2-2.4C951.6,575,950.6,575.8,950.6,577.4z"/>
</g>
<path class="st1" d="M277.1,437.5v19.8h-40.2c-18.2,0-32.3-4.6-42.3-13.8c-10-9.2-15-22.7-15-40.5V301.6c0-17.8,5-31.3,15-40.5
	c10-9.2,24.1-13.8,42.3-13.8h40.2v19.8h-40.2c-9.2,0-16.7,2.7-22.4,8c-5.7,5.3-8.6,12.4-8.6,21.1v112.2c0,8.8,2.9,15.9,8.6,21.1
	c5.7,5.3,13.1,7.9,22.4,7.9H277.1z M276.6,266.8h-26.9c-4,0-7.2-3.2-7.2-7.2v-5.1c0-4,3.2-7.2,7.2-7.2h26.9c4,0,7.2,3.2,7.2,7.2v5.1
	C283.8,263.6,280.6,266.8,276.6,266.8z M953,456.8H266.8c-4,0-7.2-3.2-7.2-7.2v-5.1c0-4,3.2-7.2,7.2-7.2H953c4,0,7.2,3.2,7.2,7.2
	v5.1C960.2,453.6,957,456.8,953,456.8z"/>
<path class="st1" d="M292.3,551.8h-13c-4,0-7.2-3.2-7.2-7.2V349.7c0-4,3.2-7.2,7.2-7.2h13c4,0,7.2,3.2,7.2,7.2v194.9
	C299.5,548.5,296.3,551.8,292.3,551.8z"/>
<path class="st1" d="M368.2,551.8h-13c-4,0-7.2-3.2-7.2-7.2V349.7c0-4,3.2-7.2,7.2-7.2h13c4,0,7.2,3.2,7.2,7.2v194.9
	C375.4,548.5,372.2,551.8,368.2,551.8z"/>
</svg>
