<?xml version="1.0" encoding="utf-8"?>
<!-- Generator: Adobe Illustrator 19.1.0, SVG Export Plug-In . SVG Version: 6.00 Build 0)  -->
<svg version="1.1" id="Layer_1" xmlns="http://www.w3.org/2000/svg" xmlns:xlink="http://www.w3.org/1999/xlink" x="0px" y="0px"
	 viewBox="0 0 1152 864" style="enable-background:new 0 0 1152 864;" xml:space="preserve">
<style type="text/css">
	.st0{fill:url(#SVGID_1_);}
	.st1{fill:#FFFFFF;}
</style>
<linearGradient id="SVGID_1_" gradientUnits="userSpaceOnUse" x1="531.4412" y1="231.5902" x2="531.4412" y2="523.5712">
	<stop  offset="0" style="stop-color:#F9A13F"/>
	<stop  offset="0.2135" style="stop-color:#F28B35"/>
	<stop  offset="0.5627" style="stop-color:#E96B29"/>
	<stop  offset="0.8368" style="stop-color:#E45525"/>
	<stop  offset="1" style="stop-color:#E34C24"/>
</linearGradient>
<circle class="st0" cx="531.4" cy="393.6" r="202.4"/>
<path class="st1" d="M506,438v19.8h-40.2c-18.2,0-32.3-4.6-42.3-13.8c-10-9.2-15-22.7-15-40.5V302.1c0-17.8,5-31.3,15-40.5
	c10-9.2,24.1-13.8,42.3-13.8H506v19.8h-40.2c-9.2,0-16.7,2.7-22.4,8c-5.7,5.3-8.6,12.4-8.6,21.1v112.2c0,8.8,2.9,15.9,8.6,21.1
	c5.7,5.3,13.1,7.9,22.4,7.9H506z M505.5,267.3h-26.9c-4,0-7.2-3.2-7.2-7.2V255c0-4,3.2-7.2,7.2-7.2h26.9c4,0,7.2,3.2,7.2,7.2v5.1
	C512.7,264.1,509.5,267.3,505.5,267.3z M635,457.4H495.7c-4,0-7.2-3.2-7.2-7.2V445c0-4,3.2-7.2,7.2-7.2H635c4,0,7.2,3.2,7.2,7.2v5.1
	C642.2,454.1,639,457.4,635,457.4z"/>
<path class="st1" d="M521.2,552.3h-13c-4,0-7.2-3.2-7.2-7.2V350.2c0-4,3.2-7.2,7.2-7.2h13c4,0,7.2,3.2,7.2,7.2v194.9
	C528.4,549.1,525.1,552.3,521.2,552.3z"/>
<path class="st1" d="M597.1,552.3h-13c-4,0-7.2-3.2-7.2-7.2V350.2c0-4,3.2-7.2,7.2-7.2h13c4,0,7.2,3.2,7.2,7.2v194.9
	C604.3,549.1,601,552.3,597.1,552.3z"/>
</svg>
