<?xml version="1.0" encoding="utf-8"?>
<!-- Generator: Adobe Illustrator 21.1.0, SVG Export Plug-In . SVG Version: 6.00 Build 0)  -->
<svg version="1.1" id="Layer_1" xmlns="http://www.w3.org/2000/svg" xmlns:xlink="http://www.w3.org/1999/xlink" x="0px" y="0px"
	 viewBox="0 0 419.8 419.8" style="enable-background:new 0 0 419.8 419.8;" xml:space="preserve">
<style type="text/css">
	.st0{fill:url(#SVGID_1_);}
	.st1{fill:url(#SVGID_2_);}
	.st2{fill:url(#SVGID_3_);}
	.st3{fill:none;stroke:url(#SVGID_4_);stroke-width:15;stroke-miterlimit:10;}
</style>
<g>
	
		<linearGradient id="SVGID_1_" gradientUnits="userSpaceOnUse" x1="216.1711" y1="432.075" x2="214.1711" y2="151.075" gradientTransform="matrix(1 0 0 -1 0 493.2)">
		<stop  offset="0" style="stop-color:#F9A13F"/>
		<stop  offset="1" style="stop-color:#E34C24"/>
	</linearGradient>
	<path class="st0" d="M195.9,252.6v19.8h-40.2c-18.2,0-32.3-4.6-42.3-13.8c-10-9.2-15-22.7-15-40.5V116.7c0-17.8,5-31.3,15-40.5
		c10-9.2,24.1-13.8,42.3-13.8h40.2v19.8h-40.2c-9.2,0-16.7,2.7-22.4,8c-5.7,5.3-8.6,12.4-8.6,21.1v112.2c0,8.8,2.9,15.9,8.6,21.1
		c5.7,5.3,13.1,7.9,22.4,7.9L195.9,252.6L195.9,252.6z M195.4,81.9h-26.9c-4,0-7.2-3.2-7.2-7.2v-5.1c0-4,3.2-7.2,7.2-7.2h26.9
		c4,0,7.2,3.2,7.2,7.2v5.1C202.6,78.7,199.4,81.9,195.4,81.9z M324.9,272H185.6c-4,0-7.2-3.2-7.2-7.2v-5.2c0-4,3.2-7.2,7.2-7.2
		h139.3c4,0,7.2,3.2,7.2,7.2v5.1C332.1,268.7,328.9,272,324.9,272z"/>
	
		<linearGradient id="SVGID_2_" gradientUnits="userSpaceOnUse" x1="206.032" y1="432.1471" x2="204.032" y2="151.1471" gradientTransform="matrix(1 0 0 -1 0 493.2)">
		<stop  offset="0" style="stop-color:#F9A13F"/>
		<stop  offset="1" style="stop-color:#E34C24"/>
	</linearGradient>
	<path class="st1" d="M211.1,366.9h-13c-4,0-7.2-3.2-7.2-7.2V164.8c0-4,3.2-7.2,7.2-7.2h13c4,0,7.2,3.2,7.2,7.2v194.9
		C218.3,363.7,215,366.9,211.1,366.9z"/>
	
		<linearGradient id="SVGID_3_" gradientUnits="userSpaceOnUse" x1="281.9281" y1="431.607" x2="279.9281" y2="150.607" gradientTransform="matrix(1 0 0 -1 0 493.2)">
		<stop  offset="0" style="stop-color:#F9A13F"/>
		<stop  offset="1" style="stop-color:#E34C24"/>
	</linearGradient>
	<path class="st2" d="M287,366.9h-13c-4,0-7.2-3.2-7.2-7.2V164.8c0-4,3.2-7.2,7.2-7.2h13c4,0,7.2,3.2,7.2,7.2v194.9
		C294.2,363.7,290.9,366.9,287,366.9z"/>
</g>
<linearGradient id="SVGID_4_" gradientUnits="userSpaceOnUse" x1="61.4783" y1="431.7217" x2="358.3217" y2="134.8783" gradientTransform="matrix(1 0 0 -1 0 493.2)">
	<stop  offset="0" style="stop-color:#F9A13F"/>
	<stop  offset="0.2236" style="stop-color:#F49238"/>
	<stop  offset="0.6746" style="stop-color:#E96E2A"/>
	<stop  offset="1" style="stop-color:#E34C24"/>
</linearGradient>
<circle class="st3" cx="209.9" cy="209.9" r="202.4"/>
</svg>
