<?xml version="1.0" encoding="utf-8"?>
<!-- Generator: Adobe Illustrator 21.1.0, SVG Export Plug-In . SVG Version: 6.00 Build 0)  -->
<svg version="1.1" id="Layer_1" xmlns="http://www.w3.org/2000/svg" xmlns:xlink="http://www.w3.org/1999/xlink" x="0px" y="0px"
	 viewBox="0 0 931.4 431.1" style="enable-background:new 0 0 931.4 431.1;" xml:space="preserve">
<style type="text/css">
	.st0{fill:url(#SVGID_1_);stroke:url(#SVGID_2_);stroke-miterlimit:10;}
	.st1{fill:url(#SVGID_3_);stroke:url(#SVGID_4_);stroke-miterlimit:10;}
	.st2{fill:url(#SVGID_5_);stroke:url(#SVGID_6_);stroke-miterlimit:10;}
	.st3{fill:url(#SVGID_7_);stroke:url(#SVGID_8_);stroke-miterlimit:10;}
	.st4{fill:url(#SVGID_9_);stroke:url(#SVGID_10_);stroke-miterlimit:10;}
	.st5{fill:url(#SVGID_11_);stroke:url(#SVGID_12_);stroke-miterlimit:10;}
	.st6{fill:url(#SVGID_13_);stroke:url(#SVGID_14_);stroke-miterlimit:10;}
	.st7{fill:url(#SVGID_15_);stroke:url(#SVGID_16_);stroke-miterlimit:10;}
	.st8{fill:url(#SVGID_17_);stroke:url(#SVGID_18_);stroke-miterlimit:10;}
	.st9{fill:url(#SVGID_19_);stroke:url(#SVGID_20_);stroke-miterlimit:10;}
	.st10{fill:url(#SVGID_21_);stroke:url(#SVGID_22_);stroke-miterlimit:10;}
	.st11{fill:url(#SVGID_23_);stroke:url(#SVGID_24_);stroke-miterlimit:10;}
	.st12{fill:url(#SVGID_25_);stroke:url(#SVGID_26_);stroke-miterlimit:10;}
	.st13{fill:url(#SVGID_27_);stroke:url(#SVGID_28_);stroke-miterlimit:10;}
	.st14{fill:url(#SVGID_29_);stroke:url(#SVGID_30_);stroke-miterlimit:10;}
	.st15{fill:#E34C24;}
	.st16{fill:url(#SVGID_31_);}
	.st17{fill:url(#SVGID_32_);}
	.st18{fill:url(#SVGID_33_);}
	.st19{fill:none;stroke:url(#SVGID_34_);stroke-width:15;stroke-miterlimit:10;}
</style>
<g>
	
		<linearGradient id="SVGID_1_" gradientUnits="userSpaceOnUse" x1="303.0948" y1="456.361" x2="323.0948" y2="89.6943" gradientTransform="matrix(1 0 0 -1 0 462.8)">
		<stop  offset="0" style="stop-color:#FFC641"/>
		<stop  offset="1" style="stop-color:#E56623"/>
	</linearGradient>
	
		<linearGradient id="SVGID_2_" gradientUnits="userSpaceOnUse" x1="302.9" y1="144.2" x2="336.4" y2="144.2" gradientTransform="matrix(1 0 0 -1 0 462.8)">
		<stop  offset="5.076142e-03" style="stop-color:#F9A13F"/>
		<stop  offset="1" style="stop-color:#E34C24"/>
	</linearGradient>
	<path class="st0" d="M335.9,347v6.6h-13.4c-6.1,0-10.8-1.5-14.1-4.6s-5-7.6-5-13.5v-33.8c0-5.9,1.7-10.4,5-13.5
		c3.3-3.1,8-4.6,14.1-4.6h13.4v6.6h-13.4c-3.1,0-5.5,0.9-7.4,2.6c-1.9,1.8-2.9,4.1-2.9,7v37.4c0,2.9,0.9,5.3,2.9,7
		c1.9,1.8,4.4,2.7,7.4,2.7L335.9,347L335.9,347z"/>
	
		<linearGradient id="SVGID_3_" gradientUnits="userSpaceOnUse" x1="340.8065" y1="458.4179" x2="360.8065" y2="91.7513" gradientTransform="matrix(1 0 0 -1 0 462.8)">
		<stop  offset="0" style="stop-color:#FFC641"/>
		<stop  offset="1" style="stop-color:#E56623"/>
	</linearGradient>
	
		<linearGradient id="SVGID_4_" gradientUnits="userSpaceOnUse" x1="343.4" y1="144.2" x2="373.9" y2="144.2" gradientTransform="matrix(1 0 0 -1 0 462.8)">
		<stop  offset="5.076142e-03" style="stop-color:#F9A13F"/>
		<stop  offset="1" style="stop-color:#E34C24"/>
	</linearGradient>
	<path class="st1" d="M343.9,283.6h8v20.7c1.1-0.3,2.5-0.8,4.4-1.3c1.8-0.5,3.1-0.9,3.9-1.2c2.2-0.6,4.4-0.9,6.6-0.9
		s3.8,0.8,4.9,2.5c1.1,1.7,1.7,3.8,1.7,6.5v43.7h-8v-41.1c0-1.9-0.1-3.3-0.4-4c-0.3-0.8-0.8-1.2-1.6-1.2c-0.8,0-4.6,1.1-11.5,3.2
		v43.1h-8V283.6z"/>
	
		<linearGradient id="SVGID_5_" gradientUnits="userSpaceOnUse" x1="381.6646" y1="460.6465" x2="401.6646" y2="93.9799" gradientTransform="matrix(1 0 0 -1 0 462.8)">
		<stop  offset="0" style="stop-color:#FFC641"/>
		<stop  offset="1" style="stop-color:#E56623"/>
	</linearGradient>
	
		<linearGradient id="SVGID_6_" gradientUnits="userSpaceOnUse" x1="383.9964" y1="134.9001" x2="414.5964" y2="134.9001" gradientTransform="matrix(1 0 0 -1 0 462.8)">
		<stop  offset="5.076142e-03" style="stop-color:#F9A13F"/>
		<stop  offset="1" style="stop-color:#E34C24"/>
	</linearGradient>
	<path class="st2" d="M414.1,353.6h-5.7l-1.5-3.4c-1,0.3-2.3,0.7-4,1.3s-3.1,1.1-4.2,1.5c-1.1,0.3-2,0.6-2.6,0.7
		c-1.9,0.4-3.4,0.6-4.5,0.6c-2.4,0-4.2-0.8-5.4-2.5c-1.2-1.7-1.8-3.8-1.8-6.5v-43.7h8v41.1c0,2.3,0.2,3.8,0.6,4.3
		c0.4,0.6,0.9,0.8,1.5,0.8c0.6,0,4.4-1,11.5-3v-43.3h8L414.1,353.6L414.1,353.6z"/>
	
		<linearGradient id="SVGID_7_" gradientUnits="userSpaceOnUse" x1="417.9096" y1="462.6236" x2="437.9096" y2="95.9569" gradientTransform="matrix(1 0 0 -1 0 462.8)">
		<stop  offset="0" style="stop-color:#FFC641"/>
		<stop  offset="1" style="stop-color:#E56623"/>
	</linearGradient>
	
		<linearGradient id="SVGID_8_" gradientUnits="userSpaceOnUse" x1="425.6" y1="135.55" x2="445.9" y2="135.55" gradientTransform="matrix(1 0 0 -1 0 462.8)">
		<stop  offset="5.076142e-03" style="stop-color:#F9A13F"/>
		<stop  offset="1" style="stop-color:#E34C24"/>
	</linearGradient>
	<path class="st3" d="M445.4,300.9v5.9c-1.7,0-5.5,1.4-11.3,4.2v42.6h-8v-52h6.2l0.9,3.7c4.1-2,6.9-3.2,8.4-3.7
		C443.1,301.2,444.4,300.9,445.4,300.9z"/>
	
		<linearGradient id="SVGID_9_" gradientUnits="userSpaceOnUse" x1="446.3268" y1="464.1736" x2="466.3268" y2="97.507" gradientTransform="matrix(1 0 0 -1 0 462.8)">
		<stop  offset="0" style="stop-color:#FFC641"/>
		<stop  offset="1" style="stop-color:#E56623"/>
	</linearGradient>
	
		<linearGradient id="SVGID_10_" gradientUnits="userSpaceOnUse" x1="451.3943" y1="135.25" x2="476.3943" y2="135.25" gradientTransform="matrix(1 0 0 -1 0 462.8)">
		<stop  offset="5.076142e-03" style="stop-color:#F9A13F"/>
		<stop  offset="1" style="stop-color:#E34C24"/>
	</linearGradient>
	<path class="st4" d="M475.9,301.6v6H465c-1.5,0-2.8,0.5-3.7,1.5s-1.4,2.4-1.4,4v29c0,1.6,0.5,2.9,1.5,4c1,1,2.2,1.5,3.8,1.5H476v6
		h-12c-3.7,0-6.6-1.1-8.8-3.3s-3.2-5.2-3.2-8.9v-26.6c0-4.2,1.1-7.5,3.3-9.8s5.4-3.5,9.6-3.5L475.9,301.6L475.9,301.6z"/>
	
		<linearGradient id="SVGID_11_" gradientUnits="userSpaceOnUse" x1="479.3942" y1="465.9772" x2="499.3942" y2="99.3107" gradientTransform="matrix(1 0 0 -1 0 462.8)">
		<stop  offset="0" style="stop-color:#FFC641"/>
		<stop  offset="1" style="stop-color:#E56623"/>
	</linearGradient>
	
		<linearGradient id="SVGID_12_" gradientUnits="userSpaceOnUse" x1="482.4" y1="144.2" x2="512.9" y2="144.2" gradientTransform="matrix(1 0 0 -1 0 462.8)">
		<stop  offset="5.076142e-03" style="stop-color:#F9A13F"/>
		<stop  offset="1" style="stop-color:#E34C24"/>
	</linearGradient>
	<path class="st5" d="M482.9,283.6h8v20.7c1.1-0.3,2.5-0.8,4.3-1.3s3.2-0.9,4-1.2c2.2-0.6,4.4-0.9,6.5-0.9c2.2,0,3.8,0.8,5,2.5
		c1.1,1.7,1.7,3.8,1.7,6.5v43.7h-8v-41.1c0-1.9-0.1-3.3-0.4-4c-0.3-0.8-0.8-1.2-1.6-1.2s-4.6,1.1-11.5,3.2v43.1h-8V283.6z"/>
	
		<linearGradient id="SVGID_13_" gradientUnits="userSpaceOnUse" x1="533.9951" y1="468.9555" x2="553.9951" y2="102.2888" gradientTransform="matrix(1 0 0 -1 0 462.8)">
		<stop  offset="0" style="stop-color:#FFC641"/>
		<stop  offset="1" style="stop-color:#E56623"/>
	</linearGradient>
	
		<linearGradient id="SVGID_14_" gradientUnits="userSpaceOnUse" x1="537" y1="135.2" x2="567.4" y2="135.2" gradientTransform="matrix(1 0 0 -1 0 462.8)">
		<stop  offset="5.076142e-03" style="stop-color:#F9A13F"/>
		<stop  offset="1" style="stop-color:#E34C24"/>
	</linearGradient>
	<path class="st6" d="M566.9,340.9c0,4.2-1.3,7.5-3.9,9.9c-2.6,2.4-6.2,3.5-10.8,3.5c-4.7,0-8.3-1.2-10.8-3.5
		c-2.6-2.4-3.9-5.7-3.9-9.9v-26.6c0-4.2,1.3-7.5,3.9-9.8c2.6-2.4,6.2-3.6,10.8-3.6c4.7,0,8.3,1.2,10.8,3.6c2.6,2.4,3.9,5.6,3.9,9.8
		V340.9z M545.3,340.9c0,2.3,0.6,4.1,1.9,5.4c1.2,1.2,2.9,1.8,5,1.8s3.8-0.6,5-1.8s1.9-3,1.9-5.4v-26.6c0-2.3-0.6-4.1-1.9-5.3
		c-1.2-1.2-2.9-1.9-5-1.9s-3.8,0.6-5,1.9c-1.2,1.2-1.9,3-1.9,5.3V340.9z"/>
	
		<linearGradient id="SVGID_15_" gradientUnits="userSpaceOnUse" x1="573.0157" y1="471.0839" x2="593.0157" y2="104.4171" gradientTransform="matrix(1 0 0 -1 0 462.8)">
		<stop  offset="0" style="stop-color:#FFC641"/>
		<stop  offset="1" style="stop-color:#E56623"/>
	</linearGradient>
	
		<linearGradient id="SVGID_16_" gradientUnits="userSpaceOnUse" x1="576.3904" y1="135.55" x2="606.8904" y2="135.55" gradientTransform="matrix(1 0 0 -1 0 462.8)">
		<stop  offset="5.076142e-03" style="stop-color:#F9A13F"/>
		<stop  offset="1" style="stop-color:#E34C24"/>
	</linearGradient>
	<path class="st7" d="M576.9,301.6h6.2l0.9,2.9c0.9-0.3,2.4-0.7,4.4-1.3s3.5-1,4.4-1.2c2.6-0.7,5-1.1,7-1.1s3.7,0.8,4.8,2.5
		s1.7,3.8,1.7,6.5v43.7h-8v-41.1c0-1.9-0.1-3.3-0.4-4c-0.3-0.8-0.8-1.2-1.6-1.2s-4.6,1.1-11.5,3.2v43.1h-8L576.9,301.6L576.9,301.6z
		"/>
	
		<linearGradient id="SVGID_17_" gradientUnits="userSpaceOnUse" x1="622.8853" y1="473.8041" x2="642.8853" y2="107.1374" gradientTransform="matrix(1 0 0 -1 0 462.8)">
		<stop  offset="0" style="stop-color:#FFC641"/>
		<stop  offset="1" style="stop-color:#E56623"/>
	</linearGradient>
	
		<linearGradient id="SVGID_18_" gradientUnits="userSpaceOnUse" x1="628.6" y1="144.3607" x2="651.6" y2="144.3607" gradientTransform="matrix(1 0 0 -1 0 462.8)">
		<stop  offset="5.076142e-03" style="stop-color:#F9A13F"/>
		<stop  offset="1" style="stop-color:#E34C24"/>
	</linearGradient>
	<path class="st8" d="M643.1,307.6v34.5c0,1.6,0.4,2.9,1.3,4c0.9,1,2.1,1.5,3.7,1.5h3v6H647c-3.7,0-6.6-1.1-8.7-3.3
		c-2.1-2.2-3.2-5.2-3.2-8.9v-33.8h-6v-6h6v-15.1l8-3v18.1h8v6H643.1z"/>
	
		<linearGradient id="SVGID_19_" gradientUnits="userSpaceOnUse" x1="655.0715" y1="475.5597" x2="675.0715" y2="108.893" gradientTransform="matrix(1 0 0 -1 0 462.8)">
		<stop  offset="0" style="stop-color:#FFC641"/>
		<stop  offset="1" style="stop-color:#E56623"/>
	</linearGradient>
	
		<linearGradient id="SVGID_20_" gradientUnits="userSpaceOnUse" x1="658.6" y1="144.2" x2="689.1" y2="144.2" gradientTransform="matrix(1 0 0 -1 0 462.8)">
		<stop  offset="5.076142e-03" style="stop-color:#F9A13F"/>
		<stop  offset="1" style="stop-color:#E34C24"/>
	</linearGradient>
	<path class="st9" d="M659.1,283.6h8v20.7c1.1-0.3,2.5-0.8,4.3-1.3s3.2-0.9,4-1.2c2.2-0.6,4.4-0.9,6.5-0.9c2.2,0,3.8,0.8,5,2.5
		c1.1,1.7,1.7,3.8,1.7,6.5v43.7h-8v-41.1c0-1.9-0.1-3.3-0.4-4c-0.3-0.8-0.8-1.2-1.6-1.2s-4.6,1.1-11.5,3.2v43.1h-8V283.6z"/>
	
		<linearGradient id="SVGID_21_" gradientUnits="userSpaceOnUse" x1="694.5933" y1="477.7154" x2="714.5933" y2="111.0487" gradientTransform="matrix(1 0 0 -1 0 462.8)">
		<stop  offset="0" style="stop-color:#FFC641"/>
		<stop  offset="1" style="stop-color:#E56623"/>
	</linearGradient>
	
		<linearGradient id="SVGID_22_" gradientUnits="userSpaceOnUse" x1="698.6" y1="135.55" x2="728.1" y2="135.55" gradientTransform="matrix(1 0 0 -1 0 462.8)">
		<stop  offset="5.076142e-03" style="stop-color:#F9A13F"/>
		<stop  offset="1" style="stop-color:#E34C24"/>
	</linearGradient>
	<path class="st10" d="M712.3,347.6h10.8v6h-12c-3.7,0-6.6-1.1-8.8-3.3s-3.2-5.2-3.2-8.9v-26.6c0-4.3,1.2-7.7,3.6-10.2
		c2.4-2.5,6-3.7,10.7-3.7s8.3,1.2,10.6,3.7c2.4,2.5,3.5,5.9,3.5,10.2v4.6c0,4.8-2.9,8-8.7,9.6l-11.8,3.3v9.8c0,1.6,0.5,2.9,1.5,4
		C709.5,347.1,710.8,347.6,712.3,347.6z M707.1,313.1V326c1.5-0.5,3.2-0.9,4.9-1.4c1.7-0.4,2.9-0.8,3.5-0.9c0.6-0.2,1.3-0.4,2.1-0.7
		s1.2-0.6,1.3-1c0.4-1.1,0.6-2.2,0.6-3.4v-5.5c0-4.1-2.1-6.2-6.2-6.2c-1.9,0-3.4,0.5-4.6,1.6C707.7,309.6,707.1,311.1,707.1,313.1z"
		/>
	
		<linearGradient id="SVGID_23_" gradientUnits="userSpaceOnUse" x1="752.2866" y1="480.8623" x2="772.2866" y2="114.1957" gradientTransform="matrix(1 0 0 -1 0 462.8)">
		<stop  offset="0" style="stop-color:#FFC641"/>
		<stop  offset="1" style="stop-color:#E56623"/>
	</linearGradient>
	
		<linearGradient id="SVGID_24_" gradientUnits="userSpaceOnUse" x1="751.4" y1="144.2" x2="789.9" y2="144.2" gradientTransform="matrix(1 0 0 -1 0 462.8)">
		<stop  offset="5.076142e-03" style="stop-color:#F9A13F"/>
		<stop  offset="1" style="stop-color:#E34C24"/>
	</linearGradient>
	<path class="st11" d="M780.6,319.8h-19.9v33.8h-8.8v-70h8.8v29.6h19.9v-29.6h8.8v70h-8.8V319.8z"/>
	
		<linearGradient id="SVGID_25_" gradientUnits="userSpaceOnUse" x1="788.1888" y1="482.8206" x2="808.1888" y2="116.154" gradientTransform="matrix(1 0 0 -1 0 462.8)">
		<stop  offset="0" style="stop-color:#FFC641"/>
		<stop  offset="1" style="stop-color:#E56623"/>
	</linearGradient>
	
		<linearGradient id="SVGID_26_" gradientUnits="userSpaceOnUse" x1="802.1863" y1="143.45" x2="811.1863" y2="143.45" gradientTransform="matrix(1 0 0 -1 0 462.8)">
		<stop  offset="5.076142e-03" style="stop-color:#F9A13F"/>
		<stop  offset="1" style="stop-color:#E34C24"/>
	</linearGradient>
	<path class="st12" d="M802.7,293.1v-8h8v8H802.7z M802.7,353.6v-52h8v52H802.7z"/>
	
		<linearGradient id="SVGID_27_" gradientUnits="userSpaceOnUse" x1="808.27" y1="483.916" x2="828.27" y2="117.2493" gradientTransform="matrix(1 0 0 -1 0 462.8)">
		<stop  offset="0" style="stop-color:#FFC641"/>
		<stop  offset="1" style="stop-color:#E56623"/>
	</linearGradient>
	
		<linearGradient id="SVGID_28_" gradientUnits="userSpaceOnUse" x1="822.2859" y1="144.2" x2="831.2859" y2="144.2" gradientTransform="matrix(1 0 0 -1 0 462.8)">
		<stop  offset="5.076142e-03" style="stop-color:#F9A13F"/>
		<stop  offset="1" style="stop-color:#E34C24"/>
	</linearGradient>
	<path class="st13" d="M822.8,353.6v-70h8v70H822.8z"/>
	
		<linearGradient id="SVGID_29_" gradientUnits="userSpaceOnUse" x1="828.2107" y1="485.0037" x2="848.2107" y2="118.337" gradientTransform="matrix(1 0 0 -1 0 462.8)">
		<stop  offset="0" style="stop-color:#FFC641"/>
		<stop  offset="1" style="stop-color:#E56623"/>
	</linearGradient>
	
		<linearGradient id="SVGID_30_" gradientUnits="userSpaceOnUse" x1="842.2859" y1="144.2" x2="851.2859" y2="144.2" gradientTransform="matrix(1 0 0 -1 0 462.8)">
		<stop  offset="5.076142e-03" style="stop-color:#F9A13F"/>
		<stop  offset="1" style="stop-color:#E34C24"/>
	</linearGradient>
	<path class="st14" d="M842.8,353.6v-70h8v70H842.8z"/>
</g>
<g>
	<path class="st15" d="M710.1,399.9v-28h12.2v2.7h-8.7v9h7v2.7h-7v10.9h9.1v2.7L710.1,399.9L710.1,399.9z"/>
	<path class="st15" d="M736.6,395.9c0.7-0.9,1-2,1-3.2s-0.2-2.2-0.7-3.1s-1-1.5-1.7-2s-1.4-1-2.2-1.6s-1.5-1.2-2.2-1.7
		s-1.2-1.3-1.7-2.2c-0.4-0.9-0.7-2-0.7-3.2c0-2.1,0.6-3.8,1.9-5.1s3.1-1.9,5.3-1.9h3.2v2.6h-3.1c-1.3,0-2.3,0.4-2.9,1.2
		c-0.7,0.8-1,1.7-1,2.7s0.2,1.8,0.7,2.5c0.4,0.7,1,1.3,1.7,1.7c0.7,0.5,1.4,1,2.2,1.6s1.5,1.2,2.2,1.9c0.7,0.6,1.2,1.5,1.7,2.5
		c0.4,1.1,0.7,2.3,0.7,3.6c0,2.5-0.7,4.4-2.1,5.7c-1.4,1.3-3.4,1.9-5.9,1.9h-4.2v-2.6h4.4C734.8,397.2,735.9,396.8,736.6,395.9z"/>
	<path class="st15" d="M750.7,399.9v-25.4h-5.6v-2.6h14.7v2.6h-5.6v25.4H750.7z"/>
	<path class="st15" d="M785.1,399.9v-25.4h-3.5v-2.6h7v28H785.1z"/>
	<path class="st15" d="M796.2,382v-5.2c0-3.5,2.2-5.2,6.5-5.2c2.1,0,3.8,0.5,4.9,1.4s1.7,2.2,1.7,3.8v5.2c0,1.5-0.7,2.8-2.1,3.7
		c1.6,1.1,2.4,2.4,2.4,3.9v5.6c0,1.5-0.6,2.7-1.8,3.6c-1.2,0.9-2.9,1.3-5.1,1.3c-4.7,0-7-1.6-7-4.9v-5.6c0-1.6,0.8-2.9,2.5-3.9
		C796.8,384.8,796.2,383.5,796.2,382z M799.2,390.1v4.7c0,1.8,1.1,2.7,3.4,2.7c2.3,0,3.4-0.9,3.4-2.7v-4.7c0-0.9-0.3-1.7-0.8-2.2
		c-0.6-0.6-1.4-0.8-2.5-0.8s-2,0.3-2.6,0.9C799.5,388.5,799.2,389.2,799.2,390.1z M802.6,384.2c2,0,3-0.9,3-2.6v-4.3
		c0-1.6-0.4-2.6-1.3-2.8c-0.4-0.1-1.1-0.2-2-0.2s-1.6,0.3-2,0.8s-0.6,1.3-0.6,2.3v4.3c0,0.9,0.2,1.6,0.6,2
		C800.8,384,801.5,384.2,802.6,384.2z"/>
	<path class="st15" d="M816.6,395h3.5c0,0.9,0.4,1.5,1.1,1.9c0.7,0.4,1.5,0.6,2.5,0.6c0.9,0,1.8-0.2,2.5-0.6c0.7-0.4,1.1-1,1.1-1.9
		v-6.8c0-1-0.2-1.7-0.5-2.1c-0.3-0.4-1.1-0.5-2.2-0.5h-7.9v-13.8h12.1v2.6h-8.6v8.5h5.3c1.8,0,3.2,0.4,4,1.2s1.2,2.1,1.2,3.8v6.8
		c0,1.7-0.7,3-2.1,3.9c-1.4,0.9-3.1,1.4-5,1.4s-3.6-0.4-5-1.3C817.3,398,816.6,396.7,816.6,395z"/>
	<path class="st15" d="M851.1,376.1v19c0,1.6-0.6,2.8-1.9,3.7c-1.2,0.9-2.8,1.3-4.8,1.3s-3.6-0.4-4.8-1.3s-1.9-2.1-1.9-3.7v-19
		c0-1.6,0.6-2.7,1.8-3.5s2.8-1.1,4.9-1.1c2,0,3.6,0.4,4.9,1.1C850.5,373.4,851.1,374.6,851.1,376.1z M841.3,376.8V395
		c0,1.6,1.1,2.4,3.2,2.4c2.1,0,3.2-0.8,3.2-2.4v-18.2c0-1.6-1.1-2.4-3.2-2.4C842.3,374.4,841.3,375.2,841.3,376.8z"/>
</g>
<g>
	
		<linearGradient id="SVGID_31_" gradientUnits="userSpaceOnUse" x1="448.2855" y1="464.2805" x2="468.2855" y2="97.6137" gradientTransform="matrix(1 0 0 -1 0 462.8)">
		<stop  offset="0" style="stop-color:#FFC641"/>
		<stop  offset="1" style="stop-color:#E34C24"/>
	</linearGradient>
	<path class="st16" d="M167.8,236.9v19.8h-40.2c-18.2,0-32.3-4.6-42.3-13.8c-10-9.2-15-22.7-15-40.5V101c0-17.8,5-31.3,15-40.5
		c10-9.2,24.1-13.8,42.3-13.8h40.2v19.8h-40.2c-9.2,0-16.7,2.7-22.4,8s-8.6,12.4-8.6,21.1v112.2c0,8.8,2.9,15.9,8.6,21.1
		c5.7,5.3,13.1,7.9,22.4,7.9L167.8,236.9L167.8,236.9z M167.3,66.2h-26.9c-4,0-7.2-3.2-7.2-7.2v-5.1c0-4,3.2-7.2,7.2-7.2h26.9
		c4,0,7.2,3.2,7.2,7.2V59C174.5,63,171.3,66.2,167.3,66.2z M843.7,256.2H157.5c-4,0-7.2-3.2-7.2-7.2v-5.1c0-4,3.2-7.2,7.2-7.2h686.2
		c4,0,7.2,3.2,7.2,7.2v5.1C850.9,253,847.7,256.2,843.7,256.2z"/>
	
		<linearGradient id="SVGID_32_" gradientUnits="userSpaceOnUse" x1="163.8174" y1="448.764" x2="183.8174" y2="82.0973" gradientTransform="matrix(1 0 0 -1 0 462.8)">
		<stop  offset="0" style="stop-color:#FFC641"/>
		<stop  offset="1" style="stop-color:#E34C24"/>
	</linearGradient>
	<path class="st17" d="M183,351.2h-13c-4,0-7.2-3.2-7.2-7.2V149.1c0-4,3.2-7.2,7.2-7.2h13c4,0,7.2,3.2,7.2,7.2V344
		C190.2,347.9,187,351.2,183,351.2z"/>
	
		<linearGradient id="SVGID_33_" gradientUnits="userSpaceOnUse" x1="239.4923" y1="452.8917" x2="259.4923" y2="86.225" gradientTransform="matrix(1 0 0 -1 0 462.8)">
		<stop  offset="0" style="stop-color:#FFC641"/>
		<stop  offset="1" style="stop-color:#E34C24"/>
	</linearGradient>
	<path class="st18" d="M258.9,351.2h-13c-4,0-7.2-3.2-7.2-7.2V149.1c0-4,3.2-7.2,7.2-7.2h13c4,0,7.2,3.2,7.2,7.2V344
		C266.1,347.9,262.9,351.2,258.9,351.2z"/>
</g>
<linearGradient id="SVGID_34_" gradientUnits="userSpaceOnUse" x1="150.5217" y1="562.4283" x2="780.8782" y2="-67.9283" gradientTransform="matrix(1 0 0 -1 0 462.8)">
	<stop  offset="5.076142e-03" style="stop-color:#F9A13F"/>
	<stop  offset="1" style="stop-color:#E34C24"/>
</linearGradient>
<path class="st19" d="M844.7,423.6h-758c-43.6,0-79.2-35.6-79.2-79.2V86.7c0-43.6,35.6-79.2,79.2-79.2h758
	c43.6,0,79.2,35.6,79.2,79.2v257.7C923.9,388,888.3,423.6,844.7,423.6z"/>
</svg>
