<?xml version="1.0" encoding="utf-8"?>
<!-- Generator: Adobe Illustrator 21.1.0, SVG Export Plug-In . SVG Version: 6.00 Build 0)  -->
<svg version="1.1" id="Layer_1" xmlns="http://www.w3.org/2000/svg" xmlns:xlink="http://www.w3.org/1999/xlink" x="0px" y="0px"
	 viewBox="0 0 404.8 404.8" style="enable-background:new 0 0 404.8 404.8;" xml:space="preserve">
<style type="text/css">
	.st0{fill:url(#SVGID_1_);}
	.st1{fill:#FFFFFF;}
</style>
<linearGradient id="SVGID_1_" gradientUnits="userSpaceOnUse" x1="202.4" y1="441.2098" x2="202.4" y2="149.2288" gradientTransform="matrix(1 0 0 -1 0 481.6)">
	<stop  offset="0" style="stop-color:#F9A13F"/>
	<stop  offset="0.2135" style="stop-color:#F28B35"/>
	<stop  offset="0.5627" style="stop-color:#E96B29"/>
	<stop  offset="0.8368" style="stop-color:#E45525"/>
	<stop  offset="1" style="stop-color:#E34C24"/>
</linearGradient>
<circle class="st0" cx="202.4" cy="202.4" r="202.4"/>
<path class="st1" d="M177,246.8v19.8h-40.2c-18.2,0-32.3-4.6-42.3-13.8c-10-9.2-15-22.7-15-40.5V110.9c0-17.8,5-31.3,15-40.5
	c10-9.2,24.1-13.8,42.3-13.8H177v19.8h-40.2c-9.2,0-16.7,2.7-22.4,8c-5.7,5.3-8.6,12.4-8.6,21.1v112.2c0,8.8,2.9,15.9,8.6,21.1
	c5.7,5.3,13.1,7.9,22.4,7.9L177,246.8L177,246.8z M176.5,76.1h-26.9c-4,0-7.2-3.2-7.2-7.2v-5.1c0-4,3.2-7.2,7.2-7.2h26.9
	c4,0,7.2,3.2,7.2,7.2v5.1C183.7,72.9,180.5,76.1,176.5,76.1z M306,266.2H166.7c-4,0-7.2-3.2-7.2-7.2v-5.2c0-4,3.2-7.2,7.2-7.2H306
	c4,0,7.2,3.2,7.2,7.2v5.1C313.2,262.9,310,266.2,306,266.2z"/>
<path class="st1" d="M192.2,361.1h-13c-4,0-7.2-3.2-7.2-7.2V159c0-4,3.2-7.2,7.2-7.2h13c4,0,7.2,3.2,7.2,7.2v194.9
	C199.4,357.9,196.1,361.1,192.2,361.1z"/>
<path class="st1" d="M268.1,361.1h-13c-4,0-7.2-3.2-7.2-7.2V159c0-4,3.2-7.2,7.2-7.2h13c4,0,7.2,3.2,7.2,7.2v194.9
	C275.3,357.9,272,361.1,268.1,361.1z"/>
</svg>
